PathFileType	4	(X/Y/Z)	D:\TRACE\spotREDO_2-26-24\spot_baseline_3-v60.trc
DataRate	CameraRate	NumFrames	NumMarkers	Units	OrigDataRate	OrigDataStartFrame	OrigNumFrames
100.00	100.00	      38	9	mm	100.00	3501	      7000
Frame#	Time	front left toe			Front right toe			aft left toe			aft right toe			Arm			FL body			FR body			AL Body			AR Body			
		X1	Y1	Z1	X2	Y2	Z2	X3	Y3	Z3	X4	Y4	Z4	X5	Y5	Z5	X6	Y6	Z6	X7	Y7	Z7	X8	Y8	Z8	X9	Y9	Z9	

3501	35.000	-159.90369	21.45113	-222.62929	308.76312	20.90650	-176.18997	-198.80382	22.65184	218.36613	267.83853	24.05402	262.35828	116.46204	807.75842	-421.22067	33.99892	547.56616	-403.83649	189.08353	553.99817	-392.30487	-40.41982	559.25482	477.28918	107.59904	560.32654	489.99564	
3502	35.010	-159.96738	21.49766	-222.65683	308.75934	20.94268	-176.17651	-198.85739	22.73211	218.28958	267.89905	24.13214	262.34515	115.97940	807.89313	-421.29568	33.52043	547.68567	-403.82010	188.56880	553.97089	-392.39056	-40.90257	559.35315	477.25894	106.96459	560.31396	489.64838	
3503	35.020	-159.98991	21.47275	-222.71930	308.75180	20.91907	-176.21509	-199.04950	22.73307	218.25995	267.90173	24.14683	262.34482	115.44629	807.97717	-421.30762	32.61148	548.02692	-404.43622	188.22458	553.92407	-392.38910	-41.38371	559.36743	477.25287	106.20253	560.26520	489.67880	
3504	35.030	-160.09665	21.46576	-222.68880	308.62137	20.92823	-176.29922	-199.13382	22.64655	218.30325	267.77380	24.07965	262.32224	115.22492	808.00720	-421.26993	32.50902	547.82806	-404.03238	187.70505	553.90320	-392.23990	-41.86662	559.34778	477.26669	105.70657	560.19171	489.63821	
3505	35.040	-160.16203	21.39828	-222.67885	308.55771	20.94700	-176.27449	-199.14104	22.56763	218.38536	267.80679	24.10681	262.31171	114.90837	808.05084	-421.14612	31.91135	547.94171	-403.86688	187.12949	553.85870	-392.09586	-42.47894	559.49084	477.26663	105.24702	560.22968	489.63049	
3506	35.050	-160.19997	21.42390	-222.67973	308.58820	20.96988	-176.23892	-199.23253	22.64142	218.38344	267.72803	24.07769	262.27728	114.60897	807.97455	-421.04062	31.52586	547.90210	-403.79922	186.61421	553.79974	-392.02078	-42.98613	559.73840	477.38226	104.84109	560.30396	489.62128	
3507	35.060	-160.14238	21.36254	-222.67303	308.71591	21.04885	-176.24452	-199.19035	22.56369	218.40327	267.88434	24.15898	262.30585	114.16929	807.95807	-421.01373	31.21833	547.88837	-403.81754	186.34911	553.74524	-391.95688	-43.43888	559.71405	477.38028	104.59829	560.34167	489.65887	
3508	35.070	-160.18681	21.35668	-222.68359	308.53574	21.02595	-176.40276	-199.30580	22.51976	218.38705	267.87863	24.18122	262.29642	113.72137	807.89282	-420.97171	30.79557	547.94092	-403.82120	185.87082	553.76477	-391.98529	-43.72765	559.71539	477.36191	104.16980	560.31519	489.74155	
3509	35.080	-160.23840	21.33815	-222.66890	308.62570	21.07645	-176.29857	-199.25777	22.42237	218.42331	267.81619	24.16414	262.26251	113.20633	808.02618	-420.90338	30.27300	547.93774	-403.74350	185.33875	553.77380	-392.05859	-44.16028	559.76111	477.38699	103.67204	560.24677	489.78885	
3510	35.090	-160.16307	21.35484	-222.76566	308.50394	21.05618	-176.30827	-199.33879	22.37885	218.44371	267.80090	24.19069	262.25241	112.88184	808.06744	-420.85583	29.81331	547.88641	-403.66559	184.70081	553.89124	-392.13965	-44.36766	559.61047	477.36420	103.32154	560.27893	489.86172	
3511	35.100	-160.28989	21.33639	-222.66959	308.44516	20.99853	-176.35042	-199.34258	22.38142	218.40750	267.65723	24.15145	262.20316	112.60979	808.07233	-420.84631	29.48556	547.83966	-403.62283	184.41621	553.95178	-392.18726	-44.22277	559.78833	477.95804	102.98730	560.43207	490.19742	
3512	35.110	-160.33411	21.34652	-222.64294	308.44720	21.00431	-176.38641	-199.35966	22.42337	218.46950	267.66861	24.17267	262.21112	112.20388	808.03900	-420.95193	29.12074	547.83142	-403.66159	184.20477	553.94781	-392.15021	-45.51544	559.65613	477.48279	102.67953	560.40460	490.19968	
3513	35.120	-160.33290	21.35611	-222.63403	308.51266	21.06941	-176.28261	-199.40009	22.40370	218.48615	267.69458	24.23839	262.22205	111.87791	807.88391	-421.00604	28.50736	547.93945	-403.57446	183.64348	553.87964	-392.05106	-45.88929	559.69366	477.51779	102.39304	560.35376	490.20786	
3514	35.130	-160.32544	21.27688	-222.62428	308.46768	21.06521	-176.34160	-199.45752	22.30350	218.51344	267.66629	24.21471	262.19550	111.51014	807.75000	-421.04135	28.13645	547.89978	-403.60583	183.08817	553.77478	-391.99808	-46.12573	559.69800	477.57809	101.76138	560.32874	489.94870	
3515	35.140	-160.40826	21.20228	-222.56990	308.40903	21.00182	-176.38390	-199.46927	22.14476	218.62071	267.77042	24.30263	262.24631	110.96906	807.67322	-421.04288	27.62722	547.90723	-403.66843	182.79854	553.76978	-391.93668	-46.49397	559.77643	477.59305	101.34665	560.32001	490.02527	
3516	35.150	-160.36722	21.16507	-222.53148	308.41931	21.07926	-176.31223	-199.45309	22.10306	218.63046	267.62793	24.23767	262.19562	110.54400	807.63239	-420.99185	27.25686	547.88940	-403.71545	182.49446	553.75122	-391.95453	-46.65228	559.79608	477.61240	101.06599	560.23743	490.05276	
3517	35.160	-160.44141	21.11983	-222.54863	308.35519	21.14789	-176.31731	-199.54842	22.13048	218.57565	267.61499	24.27738	262.19342	110.20221	807.67719	-421.04996	26.97232	547.87354	-403.72870	182.12071	553.72345	-391.98126	-46.93502	559.83698	477.66208	100.65745	560.19196	489.98938	
3518	35.170	-160.44231	21.18028	-222.56889	308.45111	21.18354	-176.22261	-199.58519	22.14035	218.56694	267.59802	24.25949	262.19550	109.92446	807.71191	-421.04282	26.49265	547.93872	-403.65918	181.64896	553.70087	-392.08087	-47.33697	559.85803	477.65866	100.18631	560.18695	489.96252	
3519	35.180	-160.44997	21.28182	-222.51337	308.29672	21.08910	-176.37125	-199.56967	22.15265	218.56496	267.57169	24.39147	262.20590	109.77258	807.72528	-421.04001	26.25552	547.88690	-403.62244	181.21590	553.57379	-392.12921	-47.78551	559.93726	477.65677	100.00159	560.21381	489.97375	
3520	35.190	-160.49681	21.19944	-222.58598	308.46143	21.11030	-176.30099	-199.65868	22.12198	218.66496	267.56152	24.42359	262.17480	109.62876	807.65961	-420.96930	25.83053	547.91266	-403.64441	180.90961	553.41864	-392.14413	-48.12476	559.94012	477.66110	99.74294	560.14648	489.98224	
3521	35.200	-160.53226	21.05969	-222.49121	308.34857	21.13430	-176.33548	-199.69435	22.02294	218.65331	267.50891	24.45132	262.17154	109.41078	807.64459	-420.93680	25.44477	547.82617	-403.59009	180.54480	553.28760	-392.14267	-48.53565	559.89569	477.68372	99.09787	560.00024	490.01166	
3522	35.210	-160.51073	20.96284	-222.45450	308.30548	21.11261	-176.36510	-199.75452	21.92533	218.56911	267.56870	24.47382	262.17316	109.20680	807.60156	-420.88632	25.11707	547.75336	-403.56003	180.26271	553.23389	-392.08142	-48.87297	559.88464	477.66095	98.88205	559.97217	490.01981	
3523	35.220	-160.56876	20.96844	-222.45995	308.30371	21.11888	-176.34163	-199.82721	21.95383	218.55627	267.47748	24.44412	262.15491	108.87978	807.56464	-420.80997	24.69601	547.73566	-403.43240	179.89084	553.16565	-392.03482	-49.18317	559.88849	477.63589	98.96659	560.00549	490.34555	
3524	35.230	-160.66681	20.99555	-222.43167	308.36163	21.22153	-176.38655	-199.78197	22.00400	218.63617	267.56628	24.55424	262.16705	108.55498	807.52148	-420.85730	24.48082	547.67554	-403.40082	179.52872	553.12982	-392.01160	-49.53532	559.93018	477.58722	98.77679	560.02435	490.34799	
3525	35.240	-160.61974	20.98973	-222.46651	308.53650	21.31748	-176.24640	-199.73686	22.01771	218.63274	267.56262	24.56748	262.17352	108.17144	807.51660	-420.83942	24.24493	547.72424	-403.36499	179.12265	553.17798	-392.02258	-49.83737	559.98474	477.58600	98.39699	560.09558	490.35864	
3526	35.250	-160.63480	20.96627	-222.43918	308.33813	21.25949	-176.37294	-199.81310	22.04129	218.61732	267.51245	24.54219	262.15848	107.89426	807.51544	-420.77332	23.91647	547.81171	-403.28192	178.80583	553.17523	-392.04733	-50.12215	559.99390	477.58386	98.10206	560.01050	490.38504	
3527	35.260	-160.59807	20.85782	-222.41765	308.25406	21.19447	-176.37262	-199.86754	21.96510	218.58589	267.46414	24.55157	262.14737	107.60365	807.59357	-420.68872	23.64612	547.85083	-403.34070	178.55602	553.19745	-392.06888	-50.46328	559.98749	477.58542	97.90401	560.04846	490.43372	
3528	35.270	-160.63910	20.79169	-222.41293	308.23062	21.22700	-176.38100	-199.98770	21.95055	218.68646	267.46338	24.58929	262.15869	107.37975	807.67212	-420.61060	23.23233	547.90265	-403.37762	178.29578	553.21802	-392.11090	-50.58822	559.98615	477.62991	97.63078	559.95758	490.45474	
3529	35.280	-160.68396	20.83021	-222.36511	308.13257	21.24734	-176.36996	-199.97314	21.94552	218.66180	267.46371	24.59445	262.14731	107.13169	807.70746	-420.64462	22.90496	547.96136	-403.34531	177.94096	553.22461	-392.07614	-50.88039	560.05328	477.60687	96.77418	560.12286	489.84665	
3530	35.290	-160.73178	20.84287	-222.32486	308.23190	21.27967	-176.44734	-199.86400	21.85738	218.61774	267.44763	24.65871	262.14182	106.97104	807.73126	-420.69412	22.66622	547.99084	-403.43030	177.71101	553.19586	-392.07175	-51.07354	560.07379	477.63586	96.56401	560.25995	489.72095	
3531	35.300	-160.72446	20.73906	-222.34001	308.27002	21.31091	-176.42030	-199.89819	21.88190	218.64865	267.52927	24.66475	262.12970	106.68748	807.64185	-420.73080	22.28586	548.04846	-403.49942	177.32387	553.10168	-392.13153	-51.29128	560.08521	477.66135	96.34354	560.19489	489.75146	
3532	35.310	-160.73303	20.69126	-222.31691	308.11588	21.28758	-176.43050	-199.86855	21.81853	218.62041	267.41229	24.64600	262.11325	106.28471	807.52972	-420.83084	21.96805	548.03229	-403.46600	177.05161	552.99231	-392.12808	-51.63929	560.15253	477.68491	95.91828	560.13757	489.75778	
3533	35.320	-160.71655	20.66216	-222.29941	308.01016	21.24110	-176.47629	-199.86227	21.86427	218.60616	267.33313	24.61350	262.10785	106.08878	807.39435	-420.85995	21.65164	548.07379	-403.43930	176.83690	552.92126	-392.10318	-51.97412	560.18390	477.68961	95.71777	559.98346	490.08276	
3534	35.330	-160.77290	20.68031	-222.36407	307.99326	21.34115	-176.41403	-199.85841	21.83808	218.58894	267.32373	24.62704	262.10684	105.94631	807.36176	-420.89923	21.44921	548.02551	-403.40833	176.62206	552.91467	-392.06564	-52.24495	560.20361	477.72626	95.21790	559.98627	489.74390	
3535	35.340	-160.79713	20.65819	-222.33360	308.02222	21.40816	-176.41368	-199.93228	21.86660	218.53712	267.29919	24.63651	262.08844	105.79371	807.36829	-420.89984	21.10634	548.09711	-403.36597	176.36081	552.88342	-392.05154	-52.60089	560.18719	477.71182	95.01255	559.95172	489.69653	
3536	35.350	-160.85315	20.63031	-222.34732	308.05942	21.37853	-176.38345	-199.93373	21.81195	218.63821	267.33759	24.74842	262.07559	105.54782	807.36639	-420.92813	20.89928	548.07233	-403.41299	176.08791	552.85413	-391.97534	-52.96649	560.16058	477.64172	94.80465	559.92999	489.71402	
3537	35.360	-160.85855	20.54094	-222.33089	308.13498	21.38666	-176.41214	-199.93370	21.77464	218.60518	267.31665	24.72495	262.09476	105.42194	807.40399	-420.93918	20.80103	548.05872	-403.39148	175.85693	552.84369	-391.92886	-53.10567	560.12109	477.68680	94.51418	559.80847	489.82672	
3538	35.370	-160.87430	20.49779	-222.35588	307.97177	21.35422	-176.48822	-199.93431	21.75127	218.65697	267.32028	24.75687	262.07733	105.28709	807.38104	-420.93781	20.66489	548.01941	-403.37262	175.48026	552.76459	-391.94278	-53.36876	560.09106	477.67212	94.22752	559.75793	489.85339	
